<svg width="32" height="32" viewBox="0 0 32 32" fill="none" xmlns="http://www.w3.org/2000/svg">
<g clip-path="url(#clip0_1_4660)">
<path d="M28.6667 24L15.3333 31.3333L2 24L2 9.33333L15.3333 2L28.6667 9.33333L28.6667 24Z" fill="white"/>
<path d="M25.8667 22.2676L15.3333 28.0009L4.8 22.2676L2 24.0009L15.3333 31.3342L28.6667 24.2676L25.8667 22.2676Z" fill="#CCE7FF"/>
<path d="M28.6667 24L15.3333 31.3333L2 24L2 9.33333L15.3333 2L28.6667 9.33333L28.6667 24Z" stroke="#033C59" stroke-miterlimit="10" stroke-linecap="round" stroke-linejoin="round"/>
<path d="M15.3332 20.6667V23.3333M19.3332 14.6667L15.3332 16.6667L11.3332 14.6667V10L15.3332 8L19.3332 10V14.6667ZM21.9998 23.3333V20L15.3332 18L8.6665 20V23.3333H21.9998Z" stroke="#033C59" stroke-miterlimit="10" stroke-linecap="round" stroke-linejoin="round"/>
<path d="M19.3335 11.3333H14.6668L11.3335 10L15.3335 8L19.3335 10V11.3333Z" fill="#CCE7FF"/>
<path d="M19.3335 11.3333H14.6668L11.3335 10L15.3335 8L19.3335 10V11.3333Z" stroke="#033C59" stroke-miterlimit="10" stroke-linejoin="round"/>
</g>
<defs>
<clipPath id="clip0_1_4660">
<rect width="32" height="32" fill="white"/>
</clipPath>
</defs>
</svg>
