<svg width="44" height="44" viewBox="0 0 44 44" fill="none" xmlns="http://www.w3.org/2000/svg">
<g filter="url(#filter0_d_1_6714)">
<rect x="3" y="3" width="36" height="36" rx="18" fill="white"/>
<path d="M30.75 20.25C30.3 20.25 30 19.95 30 19.5V18C30 15.6 29.1 13.35 27.375 11.625C25.65 9.9 23.4 9 21 9C16.05 9 12 13.05 12 18V19.5C12 19.95 11.7 20.25 11.25 20.25C10.8 20.25 10.5 19.95 10.5 19.5V18C10.5 12.225 15.225 7.5 21 7.5C23.775 7.5 26.475 8.625 28.425 10.575C30.375 12.525 31.5 15.225 31.5 18V19.5C31.5 19.95 31.2 20.25 30.75 20.25ZM22.125 30.75H19.875C18.825 30.75 18 31.575 18 32.625C18 33.675 18.825 34.5 19.875 34.5H22.125C23.175 34.5 24 33.675 24 32.625C24 31.575 23.175 30.75 22.125 30.75ZM22.125 33H19.875C19.65 33 19.5 32.85 19.5 32.625C19.5 32.4 19.65 32.25 19.875 32.25H22.125C22.35 32.25 22.5 32.4 22.5 32.625C22.5 32.85 22.35 33 22.125 33Z" fill="#3A3535"/>
<path d="M25.4999 33.7504H23.2499C22.7999 33.7504 22.4999 33.4504 22.4999 33.0004C22.4999 32.5504 22.7999 32.2504 23.2499 32.2504H25.4999C27.9749 32.2504 29.9999 30.2254 29.9999 27.7504C29.9999 27.3004 30.2999 27.0004 30.7499 27.0004C31.1999 27.0004 31.4999 27.3004 31.4999 27.7504C31.4999 31.0504 28.7999 33.7504 25.4999 33.7504ZM20.9999 29.2504C19.5749 29.2504 18.2249 28.5754 17.3999 27.4504C17.1749 27.1504 17.2499 26.6254 17.5499 26.4004C17.8499 26.1754 18.3749 26.2504 18.5999 26.5504C19.1249 27.3004 20.0249 27.7504 20.9999 27.7504C21.9749 27.7504 22.8749 27.3004 23.3999 26.5504C23.6249 26.2504 24.0749 26.1754 24.4499 26.4004C24.7499 26.6254 24.8249 27.0754 24.5999 27.4504C23.7749 28.5754 22.4249 29.2504 20.9999 29.2504Z" fill="#3A3535"/>
<path d="M12.75 18.75H10.5C8.85 18.75 7.5 20.1 7.5 21.75V25.5C7.5 27.15 8.85 28.5 10.5 28.5H12.75C13.125 28.5 13.5 28.125 13.5 27.75V19.5C13.5 19.125 13.125 18.75 12.75 18.75ZM12 27H10.5C9.675 27 9 26.325 9 25.5V21.75C9 20.925 9.675 20.25 10.5 20.25H12V27ZM31.5 18.75H29.25C28.875 18.75 28.5 19.125 28.5 19.5V27.75C28.5 28.125 28.875 28.5 29.25 28.5H31.5C33.15 28.5 34.5 27.15 34.5 25.5V21.75C34.5 20.1 33.15 18.75 31.5 18.75ZM33 25.5C33 26.325 32.325 27 31.5 27H30V20.25H31.5C32.325 20.25 33 20.925 33 21.75V25.5Z" fill="#830717"/>
</g>
<defs>
<filter id="filter0_d_1_6714" x="0" y="0" width="44" height="44" filterUnits="userSpaceOnUse" color-interpolation-filters="sRGB">
<feFlood flood-opacity="0" result="BackgroundImageFix"/>
<feColorMatrix in="SourceAlpha" type="matrix" values="0 0 0 0 0 0 0 0 0 0 0 0 0 0 0 0 0 0 127 0" result="hardAlpha"/>
<feOffset dx="1" dy="1"/>
<feGaussianBlur stdDeviation="2"/>
<feComposite in2="hardAlpha" operator="out"/>
<feColorMatrix type="matrix" values="0 0 0 0 0 0 0 0 0 0 0 0 0 0 0 0 0 0 0.1 0"/>
<feBlend mode="normal" in2="BackgroundImageFix" result="effect1_dropShadow_1_6714"/>
<feBlend mode="normal" in="SourceGraphic" in2="effect1_dropShadow_1_6714" result="shape"/>
</filter>
</defs>
</svg>
