<svg width="32" height="32" viewBox="0 0 32 32" fill="none" xmlns="http://www.w3.org/2000/svg">
<path d="M9 16.91V23.59C9.29177 23.6932 9.5445 23.884 9.72353 24.1365C9.90256 24.3889 9.99913 24.6905 10 25L10 26C10 26.1326 9.94732 26.2598 9.85355 26.3536C9.75979 26.4473 9.63261 26.5 9.5 26.5H4.5C4.36739 26.5 4.24021 26.4473 4.14645 26.3536C4.05268 26.2598 4 26.1326 4 26V25C4.00087 24.6905 4.09744 24.3889 4.27647 24.1365C4.4555 23.884 4.70823 23.6932 5 23.59L5 16.91C4.70823 16.8068 4.4555 16.616 4.27647 16.3635C4.09744 16.1111 4.00087 15.8095 4 15.5V14.5C4 14.3674 4.05268 14.2402 4.14645 14.1464C4.24021 14.0527 4.36739 14 4.5 14H9.5C9.63261 14 9.75979 14.0527 9.85355 14.1464C9.94732 14.2402 10 14.3674 10 14.5V15.5C9.99913 15.8095 9.90256 16.1111 9.72353 16.3635C9.5445 16.616 9.29177 16.8068 9 16.91Z" fill="#96A1C3"/>
<path d="M8.99988 16.91V23.59C9.29166 23.6932 9.54438 23.884 9.72341 24.1365C9.90244 24.3889 9.99901 24.6905 9.99988 25L9.99988 26C9.99988 26.1326 9.9472 26.2598 9.85343 26.3536C9.75967 26.4473 9.63249 26.5 9.49988 26.5H5.99988C5.99744 26.4868 5.99744 26.4732 5.99988 26.46L5.99988 25.38C6.00054 25.0593 6.09576 24.746 6.27363 24.4792C6.45151 24.2124 6.70413 24.0039 6.99988 23.88L6.99988 16.645C6.70018 16.5194 6.44484 16.3072 6.26666 16.0354C6.08847 15.7637 5.99557 15.4449 5.99988 15.12V14.04C5.99744 14.0268 5.99744 14.0132 5.99988 14H9.49988C9.63249 14 9.75967 14.0527 9.85343 14.1464C9.9472 14.2402 9.99988 14.3674 9.99988 14.5V15.5C9.99901 15.8095 9.90244 16.1111 9.72341 16.3635C9.54438 16.616 9.29166 16.8068 8.99988 16.91Z" fill="#CCD3EB"/>
<path d="M18 16.91V23.59C18.2918 23.6932 18.5445 23.884 18.7235 24.1365C18.9026 24.3889 18.9991 24.6905 19 25V26C19 26.1326 18.9473 26.2598 18.8536 26.3536C18.7598 26.4473 18.6326 26.5 18.5 26.5H13.5C13.3674 26.5 13.2402 26.4473 13.1464 26.3536C13.0527 26.2598 13 26.1326 13 26V25C13.0009 24.6905 13.0974 24.3889 13.2765 24.1365C13.4555 23.884 13.7082 23.6932 14 23.59L14 16.91C13.7082 16.8068 13.4555 16.616 13.2765 16.3635C13.0974 16.1111 13.0009 15.8095 13 15.5V14.5C13 14.3674 13.0527 14.2402 13.1464 14.1464C13.2402 14.0527 13.3674 14 13.5 14H18.5C18.6326 14 18.7598 14.0527 18.8536 14.1464C18.9473 14.2402 19 14.3674 19 14.5V15.5C18.9991 15.8095 18.9026 16.1111 18.7235 16.3635C18.5445 16.616 18.2918 16.8068 18 16.91Z" fill="#96A1C3"/>
<path d="M17.9999 16.91V23.59C18.2917 23.6932 18.5444 23.884 18.7234 24.1365C18.9024 24.3889 18.999 24.6905 18.9999 25V26C18.9999 26.1326 18.9472 26.2598 18.8534 26.3536C18.7597 26.4473 18.6325 26.5 18.4999 26.5H14.9999C14.9974 26.4868 14.9974 26.4732 14.9999 26.46V25.38C15.0005 25.0593 15.0958 24.746 15.2736 24.4792C15.4515 24.2124 15.7041 24.0039 15.9999 23.88L15.9999 16.645C15.7002 16.5194 15.4448 16.3072 15.2667 16.0354C15.0885 15.7637 14.9956 15.4449 14.9999 15.12V14.04C14.9974 14.0268 14.9974 14.0132 14.9999 14H18.4999C18.6325 14 18.7597 14.0527 18.8534 14.1464C18.9472 14.2402 18.9999 14.3674 18.9999 14.5V15.5C18.999 15.8095 18.9024 16.1111 18.7234 16.3635C18.5444 16.616 18.2917 16.8068 17.9999 16.91Z" fill="#CCD3EB"/>
<path d="M27 16.91V23.59C27.2918 23.6932 27.5445 23.884 27.7235 24.1365C27.9026 24.3889 27.9991 24.6905 28 25V26C28 26.1326 27.9473 26.2598 27.8536 26.3536C27.7598 26.4473 27.6326 26.5 27.5 26.5H22.5C22.3674 26.5 22.2402 26.4473 22.1464 26.3536C22.0527 26.2598 22 26.1326 22 26V25C22.0009 24.6905 22.0974 24.3889 22.2765 24.1365C22.4555 23.884 22.7082 23.6932 23 23.59V16.91C22.7082 16.8068 22.4555 16.616 22.2765 16.3635C22.0974 16.1111 22.0009 15.8095 22 15.5V14.5C22 14.3674 22.0527 14.2402 22.1464 14.1464C22.2402 14.0527 22.3674 14 22.5 14H27.5C27.6326 14 27.7598 14.0527 27.8536 14.1464C27.9473 14.2402 28 14.3674 28 14.5V15.5C27.9991 15.8095 27.9026 16.1111 27.7235 16.3635C27.5445 16.616 27.2918 16.8068 27 16.91Z" fill="#96A1C3"/>
<path d="M26.9999 16.9101L26.9999 23.5901C27.2917 23.6932 27.5444 23.8841 27.7234 24.1365C27.9025 24.389 27.999 24.6906 27.9999 25.0001V26.0001C27.9999 26.1327 27.9472 26.2599 27.8535 26.3536C27.7597 26.4474 27.6325 26.5001 27.4999 26.5001H23.9999C23.9975 26.4869 23.9975 26.4733 23.9999 26.4601V25.3801C24.0006 25.0594 24.0958 24.7461 24.2737 24.4792C24.4515 24.2124 24.7041 24.004 24.9999 23.8801L24.9999 16.6451C24.7002 16.5195 24.4449 16.3072 24.2667 16.0355C24.0885 15.7638 23.9956 15.445 23.9999 15.1201V14.0401C23.9975 14.0269 23.9975 14.0133 23.9999 14.0001H27.4999C27.6325 14.0001 27.7597 14.0528 27.8535 14.1465C27.9472 14.2403 27.9999 14.3675 27.9999 14.5001V15.5001C27.999 15.8096 27.9025 16.1112 27.7234 16.3636C27.5444 16.616 27.2917 16.8069 26.9999 16.9101ZM28.4999 11.0001C28.4999 11.1327 28.4472 11.2599 28.3535 11.3536C28.2597 11.4474 28.1325 11.5001 27.9999 11.5001L3.9999 11.5001C3.89714 11.5 3.79689 11.4683 3.71279 11.4093C3.6287 11.3502 3.56483 11.2667 3.5299 11.1701C3.49532 11.0729 3.49165 10.9674 3.5194 10.868C3.54715 10.7686 3.60496 10.6803 3.6849 10.6151L3.8199 10.5001L8.5949 6.59508L13.9099 2.24508C14.1287 2.06498 14.3709 1.91529 14.6299 1.80008C14.7997 1.719 14.9773 1.65535 15.1599 1.61008C15.7103 1.46331 16.2895 1.46331 16.8399 1.61008C16.9648 1.6395 17.0869 1.67965 17.2049 1.73008L17.3699 1.80008C17.5706 1.89049 17.7616 2.00106 17.9399 2.13008L18.0899 2.24508L22.5899 5.93008L24.1299 7.19008L24.4999 7.50008L26.0449 8.76508L27.5449 9.99008L28.1599 10.4901L28.2949 10.6051C28.3572 10.6506 28.4082 10.71 28.4438 10.7785C28.4793 10.847 28.4985 10.9229 28.4999 11.0001Z" fill="#CCD3EB"/>
<path d="M27.5649 10.0005L8.4999 10.0005C8.39714 10.0004 8.29689 9.96872 8.21279 9.90968C8.1287 9.85063 8.06483 9.7671 8.0299 9.67047C7.99532 9.57327 7.99165 9.46776 8.0194 9.36839C8.04715 9.26903 8.10496 9.18069 8.1849 9.11547L8.3199 9.00047L13.0949 5.09547L17.2049 1.73047L17.3699 1.80047C17.5706 1.89088 17.7616 2.00145 17.9399 2.13047L18.0899 2.24547L22.5899 5.93047L24.1299 7.19047L24.4999 7.50047L26.0449 8.76547L27.5649 10.0005Z" fill="#F5F7FF"/>
<path d="M28.5 10.5L3.5 10.5C2.67157 10.5 2 11.1716 2 12L2 13.5C2 14.3284 2.67157 15 3.5 15L28.5 15C29.3284 15 30 14.3284 30 13.5V12C30 11.1716 29.3284 10.5 28.5 10.5Z" fill="#CCD3EB"/>
<path d="M16.1899 6H15.6899C15.6236 6 15.56 5.97366 15.5131 5.92678C15.4663 5.87989 15.4399 5.8163 15.4399 5.75C15.4399 5.6837 15.4663 5.62011 15.5131 5.57322C15.56 5.52634 15.6236 5.5 15.6899 5.5H16.9999C17.1325 5.5 17.2597 5.44732 17.3535 5.35355C17.4472 5.25979 17.4999 5.13261 17.4999 5C17.4999 4.86739 17.4472 4.74021 17.3535 4.64645C17.2597 4.55268 17.1325 4.5 16.9999 4.5H16.4999V4C16.4999 3.86739 16.4472 3.74021 16.3535 3.64645C16.2597 3.55268 16.1325 3.5 15.9999 3.5C15.8673 3.5 15.7401 3.55268 15.6464 3.64645C15.5526 3.74021 15.4999 3.86739 15.4999 4V4.5C15.1684 4.5252 14.8605 4.68106 14.6439 4.93329C14.4273 5.18553 14.3197 5.51348 14.3449 5.845C14.3701 6.17652 14.526 6.48445 14.7782 6.70106C15.0304 6.91766 15.3584 7.0252 15.6899 7H16.1899C16.2562 7 16.3198 7.02634 16.3667 7.07322C16.4136 7.12011 16.4399 7.1837 16.4399 7.25C16.4399 7.3163 16.4136 7.37989 16.3667 7.42678C16.3198 7.47366 16.2562 7.5 16.1899 7.5H14.9999C14.8673 7.5 14.7401 7.55268 14.6464 7.64645C14.5526 7.74021 14.4999 7.86739 14.4999 8C14.4999 8.13261 14.5526 8.25979 14.6464 8.35355C14.7401 8.44732 14.8673 8.5 14.9999 8.5H15.4999V9C15.4999 9.13261 15.5526 9.25979 15.6464 9.35355C15.7401 9.44732 15.8673 9.5 15.9999 9.5C16.1325 9.5 16.2597 9.44732 16.3535 9.35355C16.4472 9.25979 16.4999 9.13261 16.4999 9V8.455C16.7975 8.38304 17.0582 8.20393 17.232 7.95192C17.4059 7.69991 17.4808 7.39267 17.4425 7.08891C17.4041 6.78515 17.2552 6.50617 17.0241 6.30529C16.793 6.10442 16.4961 5.99573 16.1899 6Z" fill="#F5F7FF"/>
<path d="M28 25.5L4 25.5C3.33696 25.5 2.70107 25.7634 2.23223 26.2322C1.76339 26.7011 1.5 27.337 1.5 28L1.5 30C1.5 30.1326 1.55268 30.2598 1.64645 30.3536C1.74021 30.4473 1.86739 30.5 2 30.5L30 30.5C30.1326 30.5 30.2598 30.4473 30.3536 30.3536C30.4473 30.2598 30.5 30.1326 30.5 30V28C30.5 27.337 30.2366 26.7011 29.7678 26.2322C29.2989 25.7634 28.663 25.5 28 25.5Z" fill="#96A1C3"/>
<path d="M24.5899 8.21045C24.5434 8.2678 24.4847 8.31414 24.4182 8.34613C24.3516 8.37811 24.2788 8.39496 24.2049 8.39545C24.0894 8.39715 23.9772 8.35621 23.8899 8.28045L23.4999 7.96045C23.4125 7.87273 23.3607 7.75567 23.3546 7.63196C23.3485 7.50824 23.3886 7.38667 23.467 7.2908C23.5455 7.19494 23.6567 7.1316 23.7792 7.11306C23.9016 7.09452 24.0266 7.12209 24.1299 7.19045L24.4999 7.50045C24.5531 7.54065 24.5978 7.59109 24.6312 7.6488C24.6646 7.70651 24.6861 7.77033 24.6945 7.83648C24.7029 7.90264 24.698 7.96981 24.68 8.03403C24.662 8.09826 24.6314 8.15824 24.5899 8.21045Z" fill="#033C59"/>
<path d="M15.6899 5.5H16.9999C17.1325 5.5 17.2597 5.44732 17.3535 5.35355C17.4472 5.25979 17.4999 5.13261 17.4999 5C17.4999 4.86739 17.4472 4.74021 17.3535 4.64645C17.2597 4.55268 17.1325 4.5 16.9999 4.5H16.4999V4C16.4999 3.86739 16.4472 3.74021 16.3535 3.64645C16.2597 3.55268 16.1325 3.5 15.9999 3.5C15.8673 3.5 15.7401 3.55268 15.6464 3.64645C15.5526 3.74021 15.4999 3.86739 15.4999 4V4.5C15.1684 4.5252 14.8605 4.68106 14.6439 4.93329C14.4273 5.18553 14.3197 5.51348 14.3449 5.845C14.3701 6.17652 14.526 6.48445 14.7782 6.70106C15.0304 6.91766 15.3584 7.0252 15.6899 7H16.1899C16.2562 7 16.3198 7.02634 16.3667 7.07322C16.4136 7.12011 16.4399 7.1837 16.4399 7.25C16.4399 7.3163 16.4136 7.37989 16.3667 7.42678C16.3198 7.47366 16.2562 7.5 16.1899 7.5H14.9999C14.8673 7.5 14.7401 7.55268 14.6464 7.64645C14.5526 7.74021 14.4999 7.86739 14.4999 8C14.4999 8.13261 14.5526 8.25979 14.6464 8.35355C14.7401 8.44732 14.8673 8.5 14.9999 8.5H15.4999V9C15.4999 9.13261 15.5526 9.25979 15.6464 9.35355C15.7401 9.44732 15.8673 9.5 15.9999 9.5C16.1325 9.5 16.2597 9.44732 16.3535 9.35355C16.4472 9.25979 16.4999 9.13261 16.4999 9V8.455C16.7975 8.38304 17.0582 8.20393 17.232 7.95192C17.4059 7.69991 17.4808 7.39267 17.4425 7.08891C17.4041 6.78515 17.2552 6.50617 17.0241 6.30529C16.793 6.10442 16.4961 5.99573 16.1899 6H15.6899C15.6236 6 15.56 5.97366 15.5131 5.92678C15.4663 5.87989 15.4399 5.8163 15.4399 5.75C15.4399 5.6837 15.4663 5.62011 15.5131 5.57322C15.56 5.52634 15.6236 5.5 15.6899 5.5Z" fill="#0074FF"/>
<path d="M27.605 25.4994V24.9994C27.6041 24.6899 27.5075 24.3883 27.3285 24.1359C27.1495 23.8834 26.8968 23.6926 26.605 23.5894L26.605 16.9094C26.8968 16.8062 27.1495 16.6154 27.3285 16.3629C27.5075 16.1105 27.6041 15.8089 27.605 15.4994V14.9994H28.105C28.5028 14.9994 28.8843 14.8414 29.1656 14.5601C29.4469 14.2788 29.605 13.8972 29.605 13.4994V11.9994C29.605 11.6016 29.4469 11.22 29.1656 10.9387C28.8843 10.6574 28.5028 10.4994 28.105 10.4994H27.785L25.67 8.7744C25.6206 8.72488 25.5614 8.68627 25.4962 8.66106C25.431 8.63585 25.3612 8.62459 25.2914 8.62802C25.2215 8.63145 25.1532 8.64949 25.0908 8.68098C25.0283 8.71246 24.9732 8.75669 24.9289 8.8108C24.8846 8.86492 24.8522 8.92772 24.8337 8.99515C24.8152 9.06257 24.8111 9.13313 24.8215 9.20226C24.832 9.2714 24.8568 9.33757 24.8945 9.3965C24.9321 9.45543 24.9817 9.50581 25.04 9.5444L26.205 10.4994L5.00498 10.4994L14.145 2.9994C14.5082 2.71637 14.9455 2.54452 15.4042 2.5046C15.8629 2.46467 16.3234 2.55838 16.73 2.7744C16.8476 2.84006 16.9597 2.91531 17.065 2.9994L21.565 6.6794C21.6683 6.74775 21.7933 6.77533 21.9157 6.75679C22.0382 6.73825 22.1494 6.67491 22.2279 6.57904C22.3063 6.48317 22.3464 6.3616 22.3403 6.23789C22.3342 6.11417 22.2824 5.99712 22.195 5.9094L17.695 2.2294C17.6454 2.18828 17.5937 2.14989 17.54 2.1144C17.3654 1.98099 17.1758 1.86855 16.975 1.7794C16.4141 1.52244 15.7922 1.42838 15.1804 1.50795C14.5686 1.58752 13.9915 1.83752 13.515 2.2294L8.19998 6.5944L3.42498 10.4994H3.10498C2.70716 10.4994 2.32562 10.6574 2.04432 10.9387C1.76302 11.22 1.60498 11.6016 1.60498 11.9994L1.60498 13.4994C1.60498 13.8972 1.76302 14.2788 2.04432 14.5601C2.32562 14.8414 2.70716 14.9994 3.10498 14.9994H3.60498L3.60498 15.4994C3.60585 15.8089 3.70242 16.1105 3.88145 16.3629C4.06048 16.6154 4.31321 16.8062 4.60498 16.9094L4.60498 23.5894C4.31321 23.6926 4.06048 23.8834 3.88145 24.1359C3.70242 24.3883 3.60585 24.6899 3.60498 24.9994V25.4994C2.94194 25.4994 2.30605 25.7628 1.83721 26.2316C1.36837 26.7005 1.10498 27.3364 1.10498 27.9994L1.10498 29.9994C1.10498 30.132 1.15766 30.2592 1.25143 30.353C1.3452 30.4467 1.47237 30.4994 1.60498 30.4994L29.605 30.4994C29.7376 30.4994 29.8648 30.4467 29.9585 30.353C30.0523 30.2592 30.105 30.132 30.105 29.9994V27.9994C30.105 27.3364 29.8416 26.7005 29.3727 26.2316C28.9039 25.7628 28.268 25.4994 27.605 25.4994ZM26.605 15.4994C26.605 15.632 26.5523 15.7592 26.4585 15.853C26.3648 15.9467 26.2376 15.9994 26.105 15.9994L23.105 15.9994C22.9724 15.9994 22.8452 15.9467 22.7514 15.853C22.6577 15.7592 22.605 15.632 22.605 15.4994V14.9994L26.605 14.9994V15.4994ZM17.605 23.5894L17.605 16.9094C17.8968 16.8062 18.1495 16.6154 18.3285 16.3629C18.5075 16.1105 18.6041 15.8089 18.605 15.4994V14.9994H21.605V15.4994C21.6059 15.8089 21.7024 16.1105 21.8814 16.3629C22.0605 16.6154 22.3132 16.8062 22.605 16.9094L22.605 23.5894C22.3132 23.6926 22.0605 23.8834 21.8814 24.1359C21.7024 24.3883 21.6059 24.6899 21.605 24.9994V25.4994H18.605V24.9994C18.6041 24.6899 18.5075 24.3883 18.3285 24.1359C18.1495 23.8834 17.8968 23.6926 17.605 23.5894ZM8.60498 23.5894L8.60498 16.9094C8.89676 16.8062 9.14948 16.6154 9.32851 16.3629C9.50754 16.1105 9.60411 15.8089 9.60498 15.4994V14.9994H12.605V15.4994C12.6059 15.8089 12.7024 16.1105 12.8814 16.3629C13.0605 16.6154 13.3132 16.8062 13.605 16.9094V23.5894C13.3132 23.6926 13.0605 23.8834 12.8814 24.1359C12.7024 24.3883 12.6059 24.6899 12.605 24.9994L12.605 25.4994H9.60498L9.60498 24.9994C9.60411 24.6899 9.50754 24.3883 9.32851 24.1359C9.14948 23.8834 8.89676 23.6926 8.60498 23.5894ZM5.10498 15.9994C4.97237 15.9994 4.8452 15.9467 4.75143 15.853C4.65766 15.7592 4.60498 15.632 4.60498 15.4994V14.9994H8.60498V15.4994C8.60498 15.632 8.5523 15.7592 8.45853 15.853C8.36477 15.9467 8.23759 15.9994 8.10498 15.9994H5.10498ZM7.60498 16.9994L7.60498 23.4994H5.60498L5.60498 16.9994H7.60498ZM13.605 24.9994C13.605 24.8668 13.6577 24.7396 13.7514 24.6458C13.8452 24.5521 13.9724 24.4994 14.105 24.4994H17.105C17.2376 24.4994 17.3648 24.5521 17.4585 24.6458C17.5523 24.7396 17.605 24.8668 17.605 24.9994V25.4994L13.605 25.4994L13.605 24.9994ZM14.605 23.4994V16.9994H16.605V23.4994H14.605ZM17.105 15.9994H14.105C13.9724 15.9994 13.8452 15.9467 13.7514 15.853C13.6577 15.7592 13.605 15.632 13.605 15.4994V14.9994H17.605V15.4994C17.605 15.632 17.5523 15.7592 17.4585 15.853C17.3648 15.9467 17.2376 15.9994 17.105 15.9994ZM22.605 24.9994C22.605 24.8668 22.6577 24.7396 22.7514 24.6458C22.8452 24.5521 22.9724 24.4994 23.105 24.4994H26.105C26.2376 24.4994 26.3648 24.5521 26.4585 24.6458C26.5523 24.7396 26.605 24.8668 26.605 24.9994V25.4994H22.605V24.9994ZM23.605 23.4994L23.605 16.9994L25.605 16.9994L25.605 23.4994H23.605ZM3.10498 13.9994C2.97237 13.9994 2.8452 13.9467 2.75143 13.853C2.65766 13.7592 2.60498 13.632 2.60498 13.4994L2.60498 11.9994C2.60498 11.8668 2.65766 11.7396 2.75143 11.6458C2.8452 11.5521 2.97237 11.4994 3.10498 11.4994L28.105 11.4994C28.2376 11.4994 28.3648 11.5521 28.4585 11.6458C28.5523 11.7396 28.605 11.8668 28.605 11.9994V13.4994C28.605 13.632 28.5523 13.7592 28.4585 13.853C28.3648 13.9467 28.2376 13.9994 28.105 13.9994L3.10498 13.9994ZM4.60498 24.9994C4.60498 24.8668 4.65766 24.7396 4.75143 24.6458C4.8452 24.5521 4.97237 24.4994 5.10498 24.4994H8.10498C8.23759 24.4994 8.36477 24.5521 8.45853 24.6458C8.5523 24.7396 8.60498 24.8668 8.60498 24.9994V25.4994H4.60498V24.9994ZM29.105 29.4994L2.10498 29.4994V27.9994C2.10498 27.6016 2.26302 27.22 2.54432 26.9387C2.82562 26.6574 3.20716 26.4994 3.60498 26.4994L27.605 26.4994C28.0028 26.4994 28.3843 26.6574 28.6656 26.9387C28.9469 27.22 29.105 27.6016 29.105 27.9994V29.4994Z" fill="#033C59"/>
</svg>
