<svg width="24" height="24" viewBox="0 0 24 24" fill="none" xmlns="http://www.w3.org/2000/svg">
<path d="M8 9L12 9" stroke="#828282" stroke-width="1.5" stroke-linecap="round"/>
<path d="M21.3006 9.80016C20.4811 9.44169 19.5733 9.3359 18.6933 9.49635L18.6347 9.50703C17.6503 9.68653 16.8531 10.4094 16.5782 11.3718C16.4609 11.7824 16.4609 12.2176 16.5782 12.6282C16.8531 13.5906 17.6503 14.3135 18.6347 14.493L18.6933 14.5037C19.5733 14.6641 20.4811 14.5583 21.3006 14.1998M2.88539 15.1513C2.37154 13.0819 2.37154 10.9181 2.88539 8.84875C3.55805 6.13983 5.70602 4.04534 8.43056 3.44162L8.88443 3.34105C10.9366 2.88632 13.0634 2.88632 15.1156 3.34105L15.5694 3.44162C18.294 4.04534 20.442 6.13984 21.1146 8.84875C21.6285 10.9182 21.6285 13.0819 21.1146 15.1512C20.442 17.8602 18.294 19.9547 15.5694 20.5584L15.1156 20.659C13.0634 21.1137 10.9366 21.1137 8.88443 20.659L8.43056 20.5584C5.70601 19.9547 3.55805 17.8602 2.88539 15.1513Z" stroke="#828282" stroke-width="1.5" stroke-linecap="round"/>
</svg>
